/* XPM */
static char *xfig2[] = {
/* width height num_colors chars_per_pixel */
"    66    62        6            1",
/* colors */
". c none s mask",
"# c #000000",
"a c #ffffff",
"b c #99cc33",
"c c #996633",
"d c #009900",
/* pixels */
"..................................................................",
".......############...........................##..................",
".......#aaaaaaa##a#.........................##b##.................",
".......##a####a##a#....####................#bbbbb#................",
"........#a####a####.####aa#...............##bbbbbb#...............",
"........#a##a###aa###aaa###..............#bbbbbbbb#...............",
"........#aaaa#.##a##a###a#...............#bbbbbbbbb#..............",
"........#a##a#..#a##a###a#.............##bbbbbbbbbb#..............",
"........#a####..#a###aaa##.............#bbbbbbbbbbb#..............",
".......##a##...##a###a####............#bbbbbbbbbbbb#..............",
".......#aaa#...#aaa##aaaa##...........#bbbbbbbbbbb#....##.........",
"...###.#####...#####a####a#..........#bbbbbbbbbbbb#...#bb##.......",
"...#cc###..........#a####a#..........#bbbbbbbbbbbb#..#bbbbb###....",
"...#cccc##.........##aaaa##..........#bbbbbbb#bbbb###bbbbbbbb#....",
"...#cccccc####......######........###bbbbbbb#bbbbbbbbbbbbbbbbb##..",
"...##ccccccccc####.......#########ccc#bbbbbb#bbbbbbbbbbbbbbbbbb##.",
"....###ccccccccccc#######ccccccccccc##bbbbb#bbbbbbbbbbb#bbbbbbbb##",
".......####ccccccccccccccccccccc####bbbbb##bbbbbbbb#b##bbbbbbbbbb#",
"...........####ccccc###ccccc######bbbb#bbbbbbbbb##bbbbbbbbbbbbbbb#",
"...............######d#########bbbbbb#d#bbb####bbbbbbbbbbbbbbbbbb#",
"...................#dd#...###bbbbbbb#b#b##bbbbbbbbbbbbbbbbbbbbbbb#",
"..................##d#....#bbbbbbbbbbb#bbb#bbbbbbbbbbbbbbbbbbbbbb#",
"..................#dd#....#bbbbbbb##bbb#bbb#bbbbbbbbbbbbbbbbbbbb#.",
".................##dd#....#bbbbbb#bbbbb#bbbb#bbbbbbb#####bbbbbb#..",
"................#ddd#....#bbbbb##bbbbbb#bbbbb#bbbbb#....#bbbbb##..",
"...............#dddd#...#bbbbbbbbbbbbbb#bbbbbbbbbbb#.....#bbbb#...",
"...............#ddd#...#bbbbbbbbbbbbbbb#bbbbbb##bbbb###..#bb###...",
"..............#dddd#..#bbbbbbbbbb###bbbbbbbbbbb#bbbbbbb#..##......",
"..............#dddd#..#bbbbbbb###...#bb#bbbbbbbb#bbbbbbb#.........",
".............#ddddd#..##bbbbbb#...###bb#bbbbbbbb#bbbbbbb#.........",
"............#dddddd#...#######...#bbbbb#bbbbbbbbb#bbbbbbb#........",
"...........#dddddddd#...........#bbbbb#bbbbbbbbbb#bbbbbbb#........",
"..........#ddddddddd#.........##bbbbbb#bbbbbbbbbbbbbbbbbbb#.......",
"..........#dddddddddd#.......#bbbbbbbb#bbbbbbbbbbb#bbbbbbbb#......",
".........#ddddddddddd#.......#bbbbbbb#bbbbbbbbbbbbbbbbbbbbb#......",
"........#ddddddddddddd#......#bbbbbb#bbbb##bbbbbbbb#bbbbbbb#......",
".......#dddddddddddddd#.....#bbbbbb#bbbb#..#bbbbbbb#bbbbbbbb#.....",
".......#ddddddddddddddd#....#bbbbbbbbbb#...#bbbbbbb#bbbbbbbb#.....",
"......#ddddd#dddddddddd#...##bbbbbbbbbb#..#bbbbbbbb#bbbbbbbb#.....",
"......#dddd#dddddddddddd#..#bbbbbbbbbbb#..#bbbbbbbbbbbbbbbbb#.....",
".....#dddddddddddddddddd#..#bbbbbbbbbbb#.#bbbbbbbbbb#bbbbbbb#.....",
".....#dddd#ddddddddddddd#..#bbbbbbbbbb#..#bbbbbbbbbbbbbbbbbb#.....",
"....#ddddddddddddddddddd#..#bbbbbbbbb#...#bbbbbbbbbb#bbbbbbb#.....",
"....#dddd#ddddddddddddddd#.#bbbbbbbb#....#bbbbbbbbbb#bbbbbbb#.....",
"...#ddddddddddddddddddddd#..#bbbbb##.....#bbbbbbbbbbbbbbbbbb#.....",
"...#ddddd#ddddddddddddddd#...#####.......#bbbbbbbbbbbbbbbbbb#.....",
"...#ddddddddddddddddddddd#...............#bbbbbbbbbbbbbbbbb#......",
"..#dddddd#dddddddddddddddd#..............#bbbbbbbbbbbbbbbbb#......",
"..#ddddddddddddddddddddddd#..............#bbbbbbbbbbbbbbbb##......",
"..#ddddddd#ddddddddddddddd#...............#bbbbbbbbbbbbbbb#.......",
"...#dddddddddddddddddddddd#...............##bbbbbbbbbbbbbb#.......",
"...#dddddddddddddddddddddd#................#bbbbbbbbbbbbb#........",
"...#ddddddddd##dddddddddd#..................#bbbbbbbbbbb##........",
"...#dddddddd#dd#ddddddddd#..................##bbbbbbbbb#..........",
"....#ddddddd#dd#dddddddd#.....................##bbbbbb#...........",
"....#dddddddd##dddddddd#.......................#bbbbb##...........",
".....#dddddddddddddddd#.........................#bbb##............",
"......#dddddddddddddd##..........................###..............",
".......#ddddddddddd###............................................",
"........###dddd####...............................................",
"..........######..................................................",
".................................................................."
};
