/* XPM */
static char *xfig64x64[] = {
/* columns rows colors chars-per-pixel */
"64 64 253 2",
"   c #050804",
".  c #041004",
"X  c #041804",
"o  c #1A0A04",
"O  c #141A04",
"+  c #052004",
"@  c #072804",
"#  c #082F05",
"$  c #073707",
"%  c #143204",
"&  c #14380A",
"*  c #260F05",
"=  c #2F1C15",
"-  c #341404",
";  c #3F180A",
":  c #2C3614",
">  c #342214",
",  c #342818",
"<  c #343234",
"1  c #074008",
"2  c #084808",
"3  c #07580D",
"4  c #0A500F",
"5  c #14400A",
"6  c #14480E",
"7  c #14500E",
"8  c #145812",
"9  c #1F5717",
"0  c #066813",
"q  c #086011",
"w  c #0A7015",
"e  c #0F781D",
"r  c #146016",
"t  c #146818",
"y  c #1D6012",
"u  c #1E6F16",
"i  c #1E6818",
"p  c #117611",
"a  c #147019",
"s  c #1C7720",
"d  c #1C7228",
"f  c #1C7F21",
"g  c #24791F",
"h  c #401E13",
"j  c #43251E",
"k  c #4C2413",
"l  c #4F2A1E",
"z  c #422A20",
"x  c #412F27",
"c  c #443A24",
"v  c #522F28",
"b  c #522A32",
"n  c #51372F",
"m  c #5C3231",
"M  c #60301F",
"N  c #603629",
"B  c #6C3521",
"V  c #6C3C2F",
"C  c #603B30",
"Z  c #623C3F",
"A  c #793D26",
"S  c #613247",
"D  c #633642",
"F  c #6C3644",
"G  c #6C3B46",
"H  c #753E49",
"J  c #47511C",
"K  c #5C4234",
"L  c #5E4732",
"P  c #6C4834",
"I  c #605E24",
"U  c #78422E",
"Y  c #7A4730",
"T  c #7C4F3F",
"R  c #785030",
"E  c #78563F",
"W  c #74622C",
"Q  c #4F4947",
"!  c #6C4846",
"~  c #685048",
"^  c #7B4246",
"/  c #7C4745",
"(  c #74514F",
")  c #795651",
"_  c #766667",
"`  c #746E6C",
"'  c #10801E",
"]  c #138820",
"[  c #148E25",
"{  c #1C8E24",
"}  c #1C892A",
"|  c #1C9428",
" . c #1B9C2C",
".. c #1CA22C",
"X. c #25811F",
"o. c #248822",
"O. c #278E20",
"+. c #259425",
"@. c #279B29",
"#. c #25A430",
"$. c #748634",
"%. c #844225",
"&. c #844830",
"*. c #8C4930",
"=. c #84503C",
"-. c #805C3E",
";. c #8E5B3D",
":. c #9C522E",
">. c #925132",
",. c #945638",
"<. c #9E5834",
"1. c #A45E39",
"2. c #AE5E39",
"3. c #AE643E",
"4. c #844847",
"5. c #84534C",
"6. c #8F5B4E",
"7. c #805E54",
"8. c #904A52",
"9. c #924F52",
"0. c #945651",
"q. c #9C5150",
"w. c #846A4C",
"e. c #896240",
"r. c #87645E",
"t. c #9B6F4F",
"y. c #9A6350",
"u. c #9C6A52",
"i. c #8A6A69",
"p. c #84767C",
"a. c #8C7274",
"s. c #996960",
"d. c #94766C",
"f. c #997169",
"g. c #A05E4F",
"h. c #A05853",
"j. c #AC5E54",
"k. c #A4634B",
"l. c #A46F4E",
"z. c #A46A51",
"x. c #A46A5C",
"c. c #AC6554",
"v. c #AC6A54",
"b. c #A27759",
"n. c #AC715C",
"m. c #B36A43",
"M. c #BC6843",
"N. c #BD704A",
"B. c #B27052",
"V. c #B17859",
"C. c #B27E5B",
"Z. c #BC7852",
"A. c #A47264",
"S. c #AE786A",
"D. c #A07972",
"F. c #A17F79",
"G. c #BC7A64",
"H. c #C5774E",
"J. c #BC8059",
"K. c #A48264",
"L. c #AC8664",
"P. c #AE8069",
"I. c #B68E6A",
"U. c #BC806F",
"Y. c #BB8863",
"T. c #B9877C",
"R. c #CA8055",
"E. c #D4825A",
"W. c #D0895B",
"Q. c #DC885F",
"!. c #DC915F",
"~. c #C48A60",
"^. c #C48879",
"/. c #CD8D7F",
"(. c #C4966C",
"). c #CC986C",
"_. c #CF9F6F",
"`. c #D29062",
"'. c #DE9966",
"]. c #CCAA74",
"[. c #ED9967",
"{. c #EF9F69",
"}. c #FC9A74",
"|. c #E2A06E",
" X c #E3A774",
".X c #EDA870",
"XX c #E4B078",
"oX c #EFB97F",
"OX c #F3AF77",
"+X c #FCAA74",
"@X c #FCB076",
"#X c #FCB87E",
"$X c #888084",
"%X c #94868C",
"&X c #A7888F",
"*X c #AA8784",
"=X c #B98B84",
"-X c #B99391",
";X c #BC9A99",
":X c #AC9AA0",
">X c #B09EA8",
",X c #BFADB4",
"<X c #C48E84",
"1X c #C4948E",
"2X c #CF9285",
"3X c #D1998E",
"4X c #D49F96",
"5X c #DD9D90",
"6X c #C4A4A8",
"7X c #CEAEAE",
"8X c #C4B2B4",
"9X c #D4A6A0",
"0X c #D5BABE",
"qX c #E0A297",
"wX c #E4A694",
"eX c #E3A89E",
"rX c #ECA99D",
"tX c #E2B982",
"yX c #FCA284",
"uX c #F0A290",
"iX c #FCAA94",
"pX c #F1BF87",
"aX c #FCB29C",
"sX c #E4AEA6",
"dX c #E4B6B0",
"fX c #F0B0A5",
"gX c #F1B7AD",
"hX c #F0BFBA",
"jX c #FCBAB1",
"kX c #DCD294",
"lX c #E0C68C",
"zX c #ECC68C",
"xX c #ECD094",
"cX c #E9DD9C",
"vX c #FCC084",
"bX c #FBC88B",
"nX c #FBD092",
"mX c #FCD898",
"MX c #FCC1B5",
"NX c #FCE09C",
"BX c #F9E6A4",
"VX c #FBF7B0",
"CX c #D9C1C4",
"ZX c #EAC8C4",
"AX c #E4CED4",
"SX c #E9D9DF",
"DX c #F8C9C3",
"FX c #F7D0CB",
"GX c #F8D7D3",
"HX c #FBE1E0",
"JX c #FAE8E6",
"KX c #FCEFF0",
"LX c #FCFAFA",
/* pixels */
"m.3.M.m.m.M.N.M.N.N.N.N.N.N.N.N.H.N.H.H.Z.H.H.Z.H.H.Z.H.H.Z.N.H.N.N.N.N.N.N.M.m.m.m.3.3.3.3.3.3.1.2.1.<.<.<.<.<.<.:.<.>.:.>.:.>.",
"m.M.m.m.N.m.N.m.N.N.N.N.N.H.N.H.N.H.Z.N.H.N.Z.H.Z.Z.H.Z.Z.H.H.N.H.H.N.N.N.N.t.m.M.m.M.m.3.3.3.2.2.1.1.1.2.<.<.<.:.:.:.:.:.:.>.>.",
"m.m.m.M.m.N.N.N.N.N.N.N.N.H.N.H.Z.H.Z.H.Z.H.Z.H.Z.H.Z.H.Z.H.Z.H.Z.N.H.H.N.$.[ w 3.m.m.m.3.3.3.2.1.2.1.<.1.<.<.<.<.<.:.:.:.>.>.:.",
"3.m.N.m.M.N.M.N.N.N.N.H.N.H.Z.H.Z.Z.H.Z.Z.R.Z.J.H.Z.J.Z.R.Z.Z.Z.Z.H.Z.Z.3.3 p ' q m.m.M.m.3.3.3.3.1.1.2.<.1.<.<.<.:.,.:.:.>.>.>.",
"M.M.m.N.N.m.N.N.N.N.H.N.Z.Z.Z.Z.Z.H.J.Z.J.Z.J.Z.J.J.H.J.Z.J.H.J.Z.Z.Z.Z.1.@ q f q I m.m.m.m.3.3.2.1.2.1.1.<.<.<.<.:.,.:.:.:.>.>.",
"m.m.N.m.N.N.N.N.N.Z.N.Z.Z.H.Z.H.Z.J.Z.J.H.J.J.J.R.J.J.J.J.J.J.Z.J.H.Z.Z.Z.k.1 p i 3 R N.m.3.m.3.3.3.1.1.1.1.<.<.<.<.,.>.:.>.>.>.",
"m.N.m.N.N.N.N.N.Z.N.Z.Z.Z.Z.Z.J.Z.J.Z.J.J.J.J.J.J.J.J.J.J.J.H.J.J.Z.J.Z.Z.l.$ 6 8 3 $ ,.m.m.m.3.3.1.3.1.1.<.1.<.:.<.:.:.>.:.>.>.",
"N.m.M.N.N.N.N.Z.N.Z.Z.Z.Z.Z.Z.Z.J.R.J.J.J.J.R.J.J.J.J.J.R.J.J.J.J.J.J.Z.R.B.@ 2 4 3 q 4 J m.m.3.m.1.2.1.1.1.<.<.<.,.,.,.:.>.>.>.",
"m.N.N.N.N.N.N.Z.Z.Z.Z.Z.Z.J.J.J.J.J.J.J.J.J.J.Y.J.J.J.Y.J.J.J.J.J.J.Z.J.Z.u.$ 3 q w w r 0 q -.3.3.3.3.1.1.1.<.<.<.<.:.,.>.>.>.>.",
"m.N.m.N.m.Z.N.Z.N.Z.Z.Z.J.Z.J.Z.J.J.J.J.J.Y.J.Y.J.Y.Y.J.Y.J.Y.J.J.J.J.J.C.L 1 3 q q 9 ] ' w 4 -.m.3.1.1.1.1.1.<.<.:.,.:.>.>.>.>.",
"N.N.N.N.Z.B.Z.B.Z.Z.Z.Z.J.Z.J.C.J.C.Y.Y.Y.J.Y.Y.Y.Y.J.Y.Y.Y.J.Y.J.J.J.J.z.$ 4 2 6 t ' ' ' ' 0 2 -.3.3.1.1.1.<.<.<.,.<.,.>.>.>.>.",
"M.B.N.B.N.N.Z.Z.Z.Z.V.Z.J.C.J.J.J.Y.J.C.Y.Y.Y.Y.Y.Y.Y.Y.Y.Y.Y.J.Y.Y.J.C.R 1 2 $ 3 0 0 w w 0 0 q 4 1.k.1.1.1.<.1.<.,.:.>.:.>.>.>.",
"N.B.N.N.V.N.V.Z.V.Z.J.J.C.J.J.C.Y.J.Y.Y.Y.Y.Y.Y.Y.Y.Y.Y.Y.Y.Y.Y.C.Y.C.b.: $ $ 6 q q 0 0 0 3 q q q 3 -.3.1.1.1.;.<.<.,.>.>.>.>.*.",
"B.N.B.N.Z.B.Z.Z.Z.Z.V.Z.J.C.J.J.Y.Y.C.Y.Y.Y.Y.Y.Y.Y.Y.Y.Y.Y.Y.Y.Y.J.Y.E @ $ 4 3 q q 0 0 q q 0 w 0 q 3 J 1.g.<.<.<.<.>.<.>.>.>.>.",
"N.N.B.N.B.Z.V.Z.V.,.C.J.J.m.B.l.B.b.V.t.t.b.C.K.C.L.I.Y.L.Y.L.Y.Y.Y.b.c $ 2 4 q q 0 e ' w w ' ' ' ' w 0 3 R 1.<.<.,.,.>.>.>.>.*.",
"B.N.B.N.V.N.V.Z.l.N.I.].lXNXNXNXNXmXmXmXmXnXxX|.-.I.I.b.Z.).(.).(.(.B.;.-.-.W I q ' ] ' ' [ [ [ [ [ ' w w q J ,.,.<.>.:.>.>.*.>.",
"B.N.B.Z.B.Z.V.Z.,.B >.3.E.tXNXNXNXBXBXnX~.~.R.R.e.Y.I.e.W._.lXcXVXVXVXVXkXkXbXV.u ] [ ] ]  .[  . .[ ] ' ' w 3 2 R <.,.,.>.>.>.>.",
"B.N.B.B.N.V.Z.V.P o * - %.`.mXNXNXNXNXnXR.l l - b.Y.Y.n M *.Z..XBXVXzX!.W.H.Z.-.] [ [ | |  ..... . .' ] ' ' 0 3 2 Y >.9.>.>.=.*.",
"B.B.N.V.B.Z.V.V.Y o o o - m.tXNXNXNXNXBXR.h o > K.I.w.o o - m.mXVXXXQ.k.l * * y ] | | |  ......... .[ ] ' ' w q 2 2 R >.>.>.*.>.",
"N.B.B.N.V.B.Z.V.E o o o o A ~.mXmXmXNXNXoX=.  K I.I.L   - >.zXcXXXQ.Y *   o & p [ |  . .@.#.#..... .{ | ' ] ' 0 3 1 1 *.>.>.=.*.",
"B.B.B.B.V.Z.V.V.=.o o o o - H.bXmXNXmXNXnXm.o t.L.K.o o U XXcX XE.V o   O & t s } | | O.+.#.#.#...@.{ { s ' e w 3 1 1 $ =.*.>.*.",
"B.B.N.B.N.V.V.V.y.c j o o * ,. XmXmXmXmXmX'.n K.I.w.o A _.xX XN.N o # 4 q a e a ] | @.@.@.#.#.#.@. .O.{ f ] e 0 3 2 1 $ n >.9.*.",
"B.B.B.V.B.V.V.Z.V.V.C.t.o o ; N.mXmXmXmXmXoX1.I.I.L.V ~.zX XB.M   # 2 3 q a p s } | O.@.#.@.@.@.+.@.| f ] ' ' 0 3 2 1 1 # *.=.*.",
"B.B.B.B.V.B.V.V.V.C.C.C.E o - 3. XnXmXmXmXmXH.d.Y.t.Z.nX|.N.j   # 1 4 3 t a u u f { O.+.@.@.@.@.O.+.{ } f f p q 2 1 1 $ # n >.4.",
"B.B.B.B.B.V.V.V.V.V.C.C.V.o o A W.nXnXnXmXnX|.e.b.V.bX|.m.j   @ # 1 4 2 q t a e X.f o.O.+.+.O.+.+.o.f s a p a q 4 2 1 1 @ , &.*.",
"v.B.B.B.V.B.Z.V.V.G.S.V.C.L o ; H.tXnXnXnXnXbX1.m.pX Xm.j   X $ # 1 2 2 r t a u s u X.o.o.O.X.o.} X.s s t a t q 1 1 1 $ # + &.4.",
"B.v.B.B.n.B.V.V.V.V.C.C.P.u.o * <.'.nXnXnXnXnXQ.tX X1.l   . @ # # $ 4 4 q r i y s u X.f o.o.X.X.f i u s r a q 4 2 2 1 # @ + C >.",
"v.B.B.n.B.V.n.n.V.V.V.V.C.C.o o M H.bXbXnXbXnXbXoXz.M   x . + # $ # 2 6 4 8 r r d i u g f f f i f u i t 7 t q 4 $ $ 1 $ @ + v &.",
"B.v.B.B.B.n.B.V.V.V.S.V.P.V.-.o - 2._.bXbXbXnXbX`.N o -.E . + @ # # 1 1 7 8 8 9 i y i g s s g 9 d t t r 2 r 3 1 $ 1 $ $ @ X l 4.",
"v.B.v.B.n.B.V.n.V.S.V.S.V.S.t.o o *.H.bXbXbXbXbX'.V E L.~ . X @ # # 1 1 2 7 8 7 r y y u u u i y d 8 r 8 6 3 2 1 # $ # @ + X x &.",
"v.v.B.v.B.n.B.n.V.B.V.V.V.P.V.K o k N.vXbXbXbXbXoX1.K.P.E . X @ @ # $ $ 5 7 7 6 9 r y r t i t 7 r 8 r 6 2 4 2 1 $ $ # + X . > 4.",
"v.v.v.B.B.B.n.B.n.n.V.S.V.V.S.-.o k N.#XvXvXvXvXbXR.;.P.-.. X + @ @ # 1 $ 2 6 6 7 8 7 y r 8 9 5 r 7 7 $ 1 6 1 $ @ @ @ @ X . l &.",
"v.v.v.v.n.n.B.n.n.V.n.V.V.V.V.S.h <. XoXvXvXbXvXvX{.,.C.e.. X X + @ + $ % $ 6 5 6 7 7 8 8 8 5 7 7 2 5 # 2 1 $ # @ @ @ + X   v / ",
"c.v.v.v.v.v.n.n.n.n.n.A.V.A.V.y.1.|.oXW.W.vXvXvXvXvX3.s.f.. . X + + + # # $ 5 2 & 6 5 6 7 6 5 2 6 6 1 @ 1 $ # @ @ + + . .   B / ",
"v.v.v.v.v.v.n.v.n.n.n.V.A.V.u.<.'.#XW.:.1.vX#XvXvX#XW.,.V.= . X X + X @ @ % # & & 5 & 6 5 6 # 6 1 $ # @ $ # @ @ + + X .     U ^ ",
"m.c.c.v.v.n.v.v.n.n.n.v.n.l.<.`.#X`.A ; M.|.vX#X#X#XOX,.l.K   X X X X + @ + % $ # & $ & 1 & # 5 # % # @ # # + X X X .     j U / ",
"c.c.c.v.c.v.v.v.n.v.n.n.l.>.W.#X`.U * * >.N.#X#X#X#X#XN.-.y.  . X + X + + + @ % @ % @ % # % # # @ @ @ + @ + X X X .       m ^ U ",
"c.c.c.c.v.v.v.v.v.v.v.z.>.W.#X{.<.* o o B 3.{.#X#X#X#X'.>.n.x   X X X X + + O + @ + @ @ @ + % @ + + + X X X X . .       = U ^ ^ ",
"c.c.c.c.c.v.v.v.n.v.z.>.R.@X'.<.h , v o - <.W.#X@X@XOXOX<.y.y.    . X X Q 6XSXKXAX$XO @ Q %X` O + + X X X . . . .       F U ^ U ",
"c.k.c.c.c.c.c.c.x.k.,.R.@X.X3.l z y.y.o * %.<.@X@XoX@XOXR.=.v.T   . . _ hXGXHXHXKXHX$Xa.FXLXKX,XX X . . X . .         l Y ^ ^ ^ ",
"c.j.c.k.c.z.c.v.k.,.R.@X+XB.M   ;.x.n.= * ; 2.'.OX@XOXOX|.>.k.x.v   Q sXFXDXMXMXMXgX;X3XFXFXDXhX` . . . . .   .     * H ^ U ^ U ",
"j.g.c.g.c.c.x.g.>.R.@X{.R.A o T v.v.l./ o - :.m.OXOXOXOX.X1.=.v.y.- *XMXDXrX[.aXjX4Xi.U.aXjXjX4X_ . .   .         = G U ^ ^ H H ",
"j.c.j.c.j.k.g.:.R.@X@XR.%.* P c.v.x.v.y.o o M 2.'.OX.XOX.X`.%.c.x.x.qXMXMX3X5.m.J.5.z 4.[.uX3XA.x .             * G / ^ U U H U ",
"j.1.j.g.c.0.:.E.+X@XE.>.h m k.x.x.c.x.c.C o ; <.R.OX.X.X.X.X<.=.c.A.rXMXjX=Xn M l = o k A 5.T r..           < _ i.T ^ ^ H H H H ",
"h.h.<.,.>.:.Q.+X@X{.2.M z 6.c.c.k.c.x.c.=.o k :.H..X.X.X.X.XW.&.S.<XgXjXfX-X,X,X;X:X8XAXKXKXHX&X        p.0XJXLXKXHX0X0X0X8X6XH ",
"&.2.m.H.E.{.@X@X+X+XM.M.2.1.,.h.c.k.0.>.<.<.<.3.'..X.X.X.X|..XZ.>.U./.5XZXKXLXLX,XHXLXKXHXFX7X~       %XFXLXJXFXDXDXHXLXLXLX8XC ",
"&.2.!.!.Q.[.[.[.[.'.'.{.[.N.*.g.k.c.m :.R.!.'.|..X.X.X{. X.X|.|.'.W.<.6.jXgXjXfX1X5XfXfXfXfX-XK v N i.hXHXDXeX<X/.fXrXeXeXwX*XD ",
"M %.A %.A A A A %.%.%.%.%.%.%.g.g.0.; A %.*.%.%.%.%.%.%.%.*.*.>.=.&.>.D.^.n.z.v.=Xy.v.qXfXsXT.! 4./ =XDXGXfX<XT G.aXfXeXA.g.f.Z ",
"m o o o o o o o o o o o o o V j.j.=.o o o * o * o * * o * * * h C s.S.2X1XC M M l n ^.fXfXeXD.H 4.! 4XMXfXeXf.n <XjXeXeXF.l k C ",
"q.H N B N F N V F V V F N C 9.g.g.4.v v v l v j l j j z j j > j y.qXgXfX=X! G V V P 5XgXfXqXi./ 4.n 2XfXsXeXf._ fXFXfXqXf.D m G ",
"h.h.h.h.j.h.h.h.1.h.h.h.j.h.h.g.j.h.h.h.h.h.h.h.h.h.h.h.h.h.0.0.S.qXfXfX*XT 9.8.9.) qXfXfX3X7./ / z G.iXsXeX*XCXGXFXeX1X) D G F ",
"q.2.q.j.q.h.h.j.h.h.j.h.h.h.j.h.h.h.h.g.h.h.g.h.6.h.0.h.0.0.0.9.P.rXfXeXF./ 9.5./ y.eXfXfX1X~ / ^ j / }.rXeXhXLXHXdX5Xf.v F G G ",
"h.q.h.q.2.q.h.q.h.h.h.h.h.h.h.h.h.h.h.h.h.h.h.h.h.0.0.0.9.h.9.5.^.rXfXqXf.4.4.8./ S.rXfXeXT.! ^ ^ m k >.}.eXrXfXsX<Xy.C D G F D ",
"q.q.q.q.q.q.h.q.2.q.h.q.h.h.q.h.h.h.h.h.0.h.9.0.9.q.0.q.0.9.9.5.2XuXfX4X_ 8.5.4.G =XrXrXeXF.( &X-XH l r.eXGXqXs.6.Y v m F Z F F ",
"q.h.h.h.h.q.h.q.q.q.h.q.q.h.h.q.q.9.q.9.h.9.h.9.h.9.9.9.9.9.,.0.3XrXfX2X7.4.4.4.C /.rXrXqX;XSXKX:XH r.;XfXgXeXDXhX0X%XH G F D F ",
"q.q.q.q.q.h.q.q.q.q.q.h.q.q.q.h.9.h.h.9.q.0.9.9.9.9.9.,.9.9.9.6.5XfXrX=X( 4.4.4.C ^.rXeXrXHXKXZXd.&XZXKXHXeXeXeXfXMXFXCX) D F D ",
"q.q.q.q.q.q.q.q.h.q.q.q.q.q.9.q.9.q.9.9.q.9.9.9.9.9.9.9.9.5.8.A.qXiXeXP.! 4.4.4.m g.yXrXeXeX3XU.D.dXJXGXeXU.^.5XeXqXsXhX7XG D D ",
"q.q.q.q.q.q.q.q.q.q.q.q.q.9.<.9.q.9.q.9.9.9.9.9.9.9.8.9.4.8.4.U.eXrX3Xi.H 4.4.^ H M <.c.z.g.=.N r.gXDXqXP.T &.g.U.5XqXqX9Xi.D S ",
"q.q.q.q.q.q.q.q.q.q.9.q.9.q.9.9.9.9.,.9.9.9.9.9.9.4.9.s.0X0X*X5XrXrXP.! 4.^ ^ ^ ^ D l M M m m l S.rXrXqXT.n h M U H.rXqX3Xi.S D ",
"q.8.q.8.q.8.8.q.8.q.9.q.9.8.q.8.q.9.8.8.9.8.9.8.8.8.5.4XGXLXLXfXrX/.y.G ^ 4.^ ^ H ^ ^ H H H H b 6.yXeXqX9X7X>X,X0XFXhXqXT.! D S ",
"q.8.q.8.q.8.q.8.q.8.q.8.8.q.8.8.8.8.8.9.8.8.4.8.4.8./ 2XfXgXDXhX5Xs.D H ^ ^ ^ ^ H H H H H G H m N E.iXqXeXhXHXLXLXJXdX2X7.b D S ",
"q.8.8.8.8.q.8.q.8.8.8.q.8.8.8.8.8.8.8.8.8.8.4.8.4.8.^ B.uXrXiX2Xy.C G 4.H 4.H H H H H H H G H F h ^ H.2XqXqXsXfXdXqXU.5.n S S S ",
"8.8.q.8.8.8.8.8.q.8.8.8.8.8.8.8.8.8.8.4.8.4.8.4.4.4.4.%.c.G.n.5.M G ^ H ^ H H ^ H H H G H F G F F h A 9.g.n.U.S.x.=.C m S S S S ",
"8.8.8.8.q.8.8.8.8.8.8.8.8.8.8.8.8.4.8.4.8.4.8.4.8.^ 4.H B B M m H H ^ ^ H H H H H H H F H F G F G F b l M V N M M b b S S S S S "
};
