/* XPM */
static char *xfig2[] = {
/* width height num_colors chars_per_pixel */
"    32    32       12            1",
/* colors */
". c none",
"# c #000000",
"a c #00ff00",
"b c #ffff00",
"c c #7f7f00",
"d c #999999",
"e c #4c4c4c",
"f c #666667",
"g c #333333",
"h c #191919",
"i c #007f00",
"j c #7f0000",
/* pixels */
"................................",
".....................#..........",
".....................####.......",
"....................#aab#.......",
"...................#cbada#......",
"..................#cbaabce##....",
".##...............#aaddac#fcef..",
"#ggh##...........#cbba#biecaaig.",
"#hjjjjgg#..#ggeeghcabiabbadabbcg",
".#g#hjjjjhjgjjjhheadccbaadcababc",
"....###ggh#jhhhecbicaafcca#aadba",
".....#..#hg#eeabaccifaabbbabbada",
"........hiedfab#caafbcdadafcdbaf",
".......gii#eacacbbafadcbaefeabi#",
"......#iiefcbdbafaacbdacbcefec#.",
"......giieecaaceegdcbadcabbi#...",
".....giiigfeeeffabcaabacfada#...",
"....giiiiifd#dfcdbiabaddabadc#..",
"...#hiiiiig###caac#bcabaacbaa#..",
"...hiiiiiiifdecbaaaffcdbdcbbbi#.",
"..giihiiiiig#iadbbcf#caaacadac#.",
".#iiiiiiiiihfeabdaaeebabbaadbf..",
".giiiiiiiiiiecbabc##eabaacbaaf#.",
"#hiiiiiiiiiie##c##.#cadddadbac..",
"giiiiiiiiiii#..#...#ibbaababc#..",
"#iiiiiiiiiii#.......#ababdabi#..",
"#giiiiiiiiiih.......#idbbaba#...",
".hiiiihiiiiie........#caaab#....",
".eiiiihiiiig..........#ibd#.....",
"..giiiiiiihf...........###......",
"...ghiihgef.....................",
"................................"
};
