/* XPM */
static char *xfig16x16[] = {
/* columns rows colors chars-per-pixel */
"16 16 254 2",
"   c #011301",
".  c #011F02",
"X  c #041A03",
"o  c #111008",
"O  c #052F05",
"+  c #072D05",
"@  c #063205",
"#  c #053F07",
"$  c #063E07",
"%  c #083104",
"&  c #0A3907",
"*  c #0E3F08",
"=  c #10260D",
"-  c #1D2516",
";  c #22241F",
":  c #24241D",
">  c #232B14",
",  c #2C2715",
"<  c #2D2F15",
"1  c #38241B",
"2  c #37301D",
"3  c #3C351A",
"4  c #0A470B",
"5  c #0D4108",
"6  c #11470D",
"7  c #114D0E",
"8  c #145813",
"9  c #195F14",
"0  c #086211",
"q  c #0F6214",
"w  c #0E6C16",
"e  c #0A7519",
"r  c #0F7619",
"t  c #116014",
"y  c #146415",
"u  c #146E18",
"i  c #1A6517",
"p  c #1D781D",
"a  c #1F7A1D",
"s  c #33431A",
"d  c #3E5A24",
"f  c #31661F",
"g  c #2A6E20",
"h  c #5F342F",
"j  c #5E3824",
"k  c #683E29",
"l  c #733F36",
"z  c #6B3740",
"x  c #693C48",
"c  c #723C46",
"v  c #773F47",
"b  c #415422",
"n  c #435D20",
"m  c #574F23",
"M  c #5F413F",
"N  c #55602A",
"B  c #68442A",
"V  c #7A472E",
"C  c #774137",
"Z  c #704832",
"A  c #714B36",
"S  c #714C35",
"D  c #744E33",
"F  c #78453B",
"G  c #7C4339",
"H  c #7D443A",
"J  c #725C2D",
"K  c #616332",
"L  c #7D6E36",
"P  c #505B43",
"I  c #5D634D",
"U  c #6A514D",
"Y  c #70414A",
"T  c #7D4748",
"R  c #7A4C4C",
"E  c #6E6D5B",
"W  c #1E8925",
"Q  c #1F8E24",
"!  c #159125",
"~  c #1F9126",
"^  c #1B9B2A",
"/  c #238521",
"(  c #259D2A",
")  c #80443A",
"_  c #8D4E33",
"`  c #885033",
"'  c #8F573F",
"]  c #8F5E36",
"[  c #925131",
"{  c #925032",
"}  c #945131",
"|  c #965130",
" . c #965434",
".. c #92543D",
"X. c #96553A",
"o. c #995533",
"O. c #9B5430",
"+. c #9A5432",
"@. c #9F5934",
"#. c #9F643B",
"$. c #9B683B",
"%. c #A05A36",
"&. c #A35B38",
"*. c #A75D38",
"=. c #AA603B",
"-. c #B1643E",
";. c #874B42",
":. c #814D4D",
">. c #8C4D44",
",. c #8A484D",
"<. c #8E4A50",
"1. c #845141",
"2. c #815C42",
"3. c #8F5342",
"4. c #8A514C",
"5. c #885B46",
"6. c #875251",
"7. c #8C5754",
"8. c #964F4F",
"9. c #914A51",
"0. c #934B51",
"q. c #914D50",
"w. c #934C51",
"e. c #944F50",
"r. c #935553",
"t. c #955251",
"y. c #915850",
"u. c #935F58",
"i. c #975859",
"p. c #995050",
"a. c #9A5050",
"s. c #9A5553",
"d. c #9D5552",
"f. c #9F5450",
"g. c #9E5552",
"h. c #9A5A56",
"j. c #885B60",
"k. c #946B4D",
"l. c #986F4B",
"z. c #986F4D",
"x. c #94625C",
"c. c #9D6860",
"v. c #A05550",
"b. c #A05551",
"n. c #A26F4A",
"m. c #AB6F48",
"M. c #A96150",
"N. c #AB6553",
"B. c #AA6854",
"V. c #AC6953",
"C. c #AE6C53",
"Z. c #AF6E53",
"A. c #AC6D56",
"S. c #A37452",
"D. c #A87552",
"F. c #AD7050",
"G. c #AC7355",
"H. c #AF7157",
"J. c #AC715A",
"K. c #B06D47",
"L. c #B56943",
"P. c #B36E4A",
"I. c #B86C45",
"U. c #BA6C46",
"Y. c #B96E49",
"T. c #BC6F49",
"R. c #B06A51",
"E. c #B06F53",
"W. c #B1754E",
"Q. c #B8704E",
"!. c #BA734E",
"~. c #BD704A",
"^. c #BD734C",
"/. c #BF734C",
"(. c #BD744E",
"). c #B37151",
"_. c #B37652",
"`. c #B07454",
"'. c #B17457",
"]. c #B67150",
"[. c #B67351",
"{. c #B77750",
"}. c #B67753",
"|. c #B57850",
" X c #B47B56",
".X c #B0795B",
"XX c #B1785D",
"oX c #BF7750",
"OX c #BB7852",
"+X c #B97B56",
"@X c #BB7C51",
"#X c #BD7851",
"$X c #BD7953",
"%X c #BF7850",
"&X c #BF7851",
"*X c #BD7C55",
"=X c #BD7D56",
"-X c #BD7E57",
";X c #BD7F57",
":X c #A3756A",
">X c #A27671",
",X c #A57B76",
"<X c #AF7B75",
"1X c #B37B71",
"2X c #C0764F",
"3X c #C77F56",
"4X c #AB855D",
"5X c #AD825A",
"6X c #B9805A",
"7X c #BB835D",
"8X c #BB845E",
"9X c #BB855F",
"0X c #AF857C",
"qX c #B58460",
"wX c #B78F61",
"eX c #BC806B",
"rX c #BD8C65",
"tX c #BE8D66",
"yX c #B2847F",
"uX c #BA8376",
"iX c #BB8377",
"pX c #BC8177",
"aX c #BA8178",
"sX c #B9887E",
"dX c #BB9167",
"fX c #C69266",
"gX c #C09A6C",
"hX c #C7986D",
"jX c #CC9C6B",
"kX c #D39568",
"lX c #E9A36C",
"zX c #EDA772",
"xX c #E8A973",
"cX c #AB8481",
"vX c #B38C85",
"bX c #BE8A85",
"nX c #BD8E84",
"mX c #B99087",
"MX c #C4988F",
"NX c #CC9187",
"BX c #C8968C",
"VX c #C29691",
"CX c #C29A92",
"ZX c #C99890",
"AX c #D09C92",
"SX c #C1A09B",
"DX c #D5A299",
"FX c #D7A59A",
"GX c #DCA69B",
"HX c #D8AAA4",
"JX c #EDBB83",
"KX c #F3CA8D",
"LX c #FAC386",
"PX c #F6D394",
/* pixels */
"L.I.T.2X2X2X2X2X2XL $.-.*.%.O.| ",
"I.T.(.oX@X6X6X*X@XN n #.=.%.+.| ",
"Y.!.oX X6X8X9X9X Xb 0 f ] %.+.[ ",
"!.[._.fXjXdX9XdX5Xd w e g J  .[ ",
").Z.j wXPXz.R 5XdXK W ^ ! u m _ ",
").G.A D KXtXk.l.s 8 Q ( ~ r 6 B ",
"E._.XXZ jXJXD.< 4 y a / p q # 3 ",
"C.`.XX5.n.LXS.> @ 7 9 i 8 4 @ , ",
"V.A.J.G.W.xXkX2 + O * 5 & O X 1 ",
"N.B.F.OXk m.zXS - E I P =   o k ",
"M.R.6XX.1.V lX[.:XFX0XmX; ; M R ",
"X.P.P...3.` @X_.1XBXCXvXU CXHXcX",
") G G >.;.C C F aXu.1X<Xc.AXAXR ",
"v.v.v.v.d.s.t.h.NX7.aXVX,XHXcXc ",
"a.a.p.t.e.q.i.bXaXT <.x.BXbXAXj.",
"0.0.e.9.9.,.r.1X6.T x l r.sX,Xx "
};
