/* XPM */
static char *xfig32x32[] = {
/* columns rows colors chars-per-pixel */
"32 32 256 2",
"   c #030C03",
".  c #020701",
"X  c #0B1306",
"o  c #041903",
"O  c #150A05",
"+  c #19150E",
"@  c #151714",
"#  c #052303",
"$  c #072C04",
"%  c #0A2904",
"&  c #0E2708",
"*  c #073306",
"=  c #063A06",
"-  c #0C3506",
";  c #0C3E08",
":  c #0A3B07",
">  c #162A0C",
",  c #132511",
"<  c #14390C",
"1  c #1A3514",
"2  c #2B180F",
"3  c #221912",
"4  c #34170B",
"5  c #391E13",
"6  c #222018",
"7  c #3B2215",
"8  c #243A1C",
"9  c #2F3327",
"0  c #3D3836",
"q  c #3B3423",
"w  c #074409",
"e  c #064D0A",
"r  c #0B4A0B",
"t  c #0C450B",
"y  c #0B550E",
"u  c #095B10",
"i  c #124C0E",
"p  c #12440B",
"a  c #1C4711",
"s  c #165612",
"d  c #135C13",
"f  c #0D6C15",
"g  c #086412",
"h  c #0C7619",
"j  c #136214",
"k  c #196918",
"l  c #1A731A",
"z  c #1A771C",
"x  c #264F14",
"c  c #34551B",
"v  c #2D611A",
"b  c #23781E",
"n  c #31601D",
"m  c #45241A",
"M  c #4F291E",
"N  c #48261A",
"B  c #403A1C",
"V  c #5A301B",
"C  c #4D2A20",
"Z  c #492721",
"A  c #4B3726",
"S  c #403D35",
"D  c #522A22",
"F  c #573526",
"G  c #5C3B2B",
"H  c #583428",
"J  c #5F3432",
"K  c #62341F",
"L  c #653A27",
"P  c #66363E",
"I  c #6E3B34",
"U  c #673838",
"Y  c #703B28",
"T  c #743F37",
"R  c #5F3144",
"E  c #633544",
"W  c #6B3844",
"Q  c #753E48",
"!  c #723C44",
"~  c #4F5128",
"^  c #5E4B24",
"/  c #575C2B",
"(  c #416323",
")  c #6E442D",
"_  c #6B4737",
"`  c #6B5D2E",
"'  c #7C492E",
"]  c #75442A",
"[  c #77453B",
"{  c #7A5930",
"}  c #7B6A33",
"|  c #6D4748",
" . c #635F53",
".. c #764046",
"X. c #7B4245",
"o. c #7B4946",
"O. c #784B50",
"+. c #7D5643",
"@. c #12821F",
"#. c #188A23",
"$. c #1A9629",
"%. c #199929",
"&. c #1EA32D",
"*. c #218421",
"=. c #258D22",
"-. c #249C2A",
";. c #249526",
":. c #24A22E",
">. c #81452B",
",. c #8D4D34",
"<. c #864B3B",
"1. c #885439",
"2. c #904F32",
"3. c #99522F",
"4. c #97512F",
"5. c #945232",
"6. c #955837",
"7. c #9B5633",
"8. c #9E5935",
"9. c #985739",
"0. c #916238",
"q. c #A25B36",
"w. c #A55E39",
"e. c #A95E39",
"r. c #A4623E",
"t. c #AD633D",
"y. c #B0663F",
"u. c #854749",
"i. c #8A494D",
"p. c #824B46",
"a. c #8F4A51",
"s. c #834F50",
"d. c #895447",
"f. c #875A56",
"g. c #914E4D",
"h. c #924C51",
"j. c #984F50",
"k. c #94524D",
"l. c #935849",
"z. c #9C534E",
"x. c #995B48",
"c. c #945252",
"v. c #9D5451",
"b. c #975953",
"n. c #976749",
"m. c #90605E",
"M. c #996657",
"N. c #957454",
"B. c #906F47",
"V. c #986B65",
"C. c #9B716C",
"Z. c #977574",
"A. c #A35B4C",
"S. c #A15A52",
"D. c #A26543",
"F. c #AC6742",
"G. c #AC6D4A",
"H. c #A86A46",
"J. c #A46B53",
"K. c #AA6453",
"L. c #AC6B54",
"P. c #AA6D5B",
"I. c #A56758",
"U. c #A6714F",
"Y. c #AE7255",
"T. c #AD735A",
"R. c #A6795A",
"E. c #B56943",
"W. c #B46E4D",
"Q. c #B96C46",
"!. c #BB6F49",
"~. c #B26640",
"^. c #B16F52",
"/. c #B4714B",
"(. c #BC724C",
"). c #B47453",
"_. c #B0765B",
"`. c #B57D57",
"'. c #B27B5C",
"]. c #BC7651",
"[. c #BD7B55",
"{. c #BC7F58",
"}. c #A46B67",
"|. c #A2776D",
" X c #B97A66",
".X c #A27879",
"XX c #C0754E",
"oX c #C17C53",
"OX c #868179",
"+X c #BB825C",
"@X c #B9835C",
"#X c #AB857D",
"$X c #BA8762",
"%X c #B88862",
"&X c #B88478",
"*X c #C48257",
"=X c #D78F5E",
"-X c #C08960",
";X c #CF8B78",
":X c #C89568",
">X c #DE9663",
",X c #DD9865",
"<X c #D59766",
"1X c #CCA072",
"2X c #D2A06F",
"3X c #D6AA77",
"4X c #D5AA78",
"5X c #E79966",
"6X c #EAA972",
"7X c #E6B37C",
"8X c #F5A46E",
"9X c #F1AC74",
"0X c #FBB77C",
"qX c #9F8582",
"wX c #AB8788",
"eX c #AB948F",
"rX c #A19691",
"tX c #BA8A82",
"yX c #BE938B",
"uX c #BE9691",
"iX c #BBA8A7",
"pX c #C48E82",
"aX c #C79589",
"sX c #D5988B",
"dX c #D89D92",
"fX c #DCA49A",
"gX c #DEA499",
"hX c #C3A3A1",
"jX c #CEB9BA",
"kX c #DDB1AB",
"lX c #D8BAB8",
"zX c #DBABA3",
"xX c #E4A69B",
"cX c #E4A99D",
"vX c #E8A79A",
"bX c #E2BE85",
"nX c #F6BB81",
"mX c #E4ACA2",
"MX c #EAAEA3",
"NX c #E5B2AA",
"BX c #E5BBB5",
"VX c #F2B3A0",
"CX c #F7BFB3",
"ZX c #D6BFC1",
"AX c #FCC689",
"SX c #F6C488",
"DX c #FBCE90",
"FX c #FBD394",
"GX c #FCDB99",
"HX c #EBC3BE",
"JX c #F5C0B6",
"KX c #FDE49F",
"LX c #F3E1A0",
"PX c #DDC4C3",
"IX c #E9C9C6",
"UX c #F5CAC4",
/* pixels */
"E.E.Q.Q.!.!.!.XXXXXXXXXXXXXXXXXXXXXXQ.r.E.~.t.e.e.w.q.7.3.3.3.4.",
"E.E.Q.Q.XX!.XXXXXXXX].oX[.oXoX].(.XX} b } E.~.t.e.w.q.7.q.3.4.4.",
"E.Q.Q.!.(.XXXXXXXXoX[.[.[.[.[.[.[.].} d v 0.E.F.e.w.q.8.7.7.4.2.",
"E.Q.(.(.(.].].].+X[.+X+X+X[.*X+X[.].U.a y c 0.H.t.e.w.8.7.5.4.2.",
"Q.Q.(.(.].].[.[.@X`.+X+X+X+X+X+X+X{.B.t u f k ` t.e.r.8.7.7.5.5.",
"!.(.(.).].[.`.@X@X@X@X$X$X$X$X%X+X`.~ w u h h g ` r.w.8.7.5.5.,.",
"/.(.).].].`.`.`.%X X%X%X$X$X%X%X@XB.1 e u f g g j / 6.8.7.5.5.2.",
"W.).).).G.%X<X3X4X4X1X%X@X%X%X:X:XN./ ( f h h #.@.f n { 7.5.2.2.",
"W.).).).) ) @XKXKXFX@X{ R.B.x.4XLXbX:XN.#.#.$.%.%.@.h s ` 5.2.,.",
"W.).).).M O K 7XKXFXn.7 N.A V 4X7X{ 7 x #.%.-.:.&.#.@.f w ^ ,.2.",
"^.).).).) 2 4 +XGXGX2X{ N.A @X2X) > p k #.;.-.:.-.#.@.h e p ) ,.",
"^.).).)._.n.7 ' bXGXSX%X@X@X:XG % e f l #.;.-.;.;.#.@.f e = q ,.",
"^.^.).T.'. X_ N <XFXFX-X-X:XF # = e j l b =.=.=.=.z h j w = > ' ",
"L.^.).Y._.'.N.7 D.SXDXnX:XL @ # = r d j l b #.b l k j u w = & L ",
"L.^.L.T._.'.R.F L 5XDXSXG._ q # * = i s d v b k k d y w - * & H ",
"L.^.).T.Y._. X+.N <XAXAX<XU.A # % * t i s d d s s i w ; $ # X H ",
"L.L.L.P.T.T.'.M.H.,X9XAX9XY.A o o % = ; p i s p i = : * # # X L ",
"K.L.L.L.P.T.U./.<X6.*X0XnX*X_ o o # % - : < < - - $ $ # o   + I ",
"K.K.L.L.P.J.G.>X1.2 6.9X0X,X1.6 o o , 8 1 $ > - # o o o   . Z T ",
"K.K.K.J.K.W.>Xr.G m V =X0X9XH._ X 9 eXPXiX .rXOX> o o   . 3 I X.",
"K.K.K.K.W.5XG.F n.[ 5 y.9X9X*Xx.H wXCXVXzXtXJXNX0       + J T Q ",
"A.K.z.E.5X].L d.I.b.5 ' ,X9X,Xr.P.mXfXM.+._ &XC.6 . @ S | s.s.X.",
"A.G.XX8X8XF.1.A.K.x.>.7.5X9X6X[. XgXBXjXiXlXIXqX@ 0 hXIXIXZXZXZ.",
">.8.r.D.F.r.8.9.l.] 6.r.H.H.G.G.D.P.aXpXtXgXNXV.U uXUXpXsXNXaXf.",
"L M D D D D D i.g.M N N m m m M M.sXM.I _ sXfXm.o.fXcXC.fXmXf.J ",
"z.z.z.z.z.A.A.A.S.c.k.k.k.k.k.g.pXmXV.u.b.fXfXO.U  XvXlXIX&X| W ",
"z.z.z.v.v.S.v.v.S.S.b.v.c.c.k.b.sXdXV.u.V.vXaXV.O.[ vXfX&Xo.P W ",
"z.z.v.v.z.v.z.v.v.c.c.c.h.k.g.b.dXsXs.X.M.vXNXPXwXhXBXcXkXwX| P ",
"v.j.v.j.j.z.j.j.c.k.h.c.a.a.c.}.vX&XO.u.p. X XV.yXHX&XI.sXmX.XE ",
"j.j.j.j.j.j.j.j.h.h.h.h.a.}.lXkXdXb.X.Q ! I T P  XxX#XZ.aXmXC.E ",
"j.h.h.h.h.h.h.a.a.a.a.i.u.}.MXcXM.X.X.Q Q Q ! P p.;XfXIXBX#X| R ",
"h.h.a.h.h.h.a.a.i.i.i.i.u.<.x.d.T Q Q Q Q ! W W U [ l.n.p.P R E "
};
